P2
52 94
255
255 255 255 255 255 255 255 255 255 255 255 255 255 255 255 255 255 255 84 84 117 117 117 117 117 117 84 84 255 255 255 255 255 255 255 255 255 255 255 255 255 255 255 255 255 255 255 255 255 255 255 255 
255 255 255 255 255 255 255 255 255 255 255 255 255 255 255 255 255 255 84 84 117 117 117 117 117 117 84 84 255 255 255 255 255 255 255 255 255 255 255 255 255 255 255 255 255 255 255 255 255 255 255 255 
255 255 255 255 255 255 255 255 255 255 255 255 255 255 84 84 84 84 117 117 117 117 84 84 84 84 84 84 84 84 84 84 255 255 255 255 255 255 255 255 255 255 255 255 255 255 255 255 255 255 255 255 
255 255 255 255 255 255 255 255 255 255 255 255 255 255 84 84 84 84 117 117 117 117 84 84 84 84 84 84 84 84 84 84 255 255 255 255 255 255 255 255 255 255 255 255 255 255 255 255 255 255 255 255 
255 255 255 255 255 255 255 255 255 255 255 255 84 84 117 117 117 117 117 117 84 84 54 54 54 54 54 54 84 84 117 117 84 84 255 255 255 255 255 255 255 255 255 255 255 255 255 255 255 255 255 255 
255 255 255 255 255 255 255 255 255 255 255 255 84 84 117 117 117 117 117 117 84 84 54 54 54 54 54 54 84 84 117 117 84 84 255 255 255 255 255 255 255 255 255 255 255 255 255 255 255 255 255 255 
255 255 255 255 255 255 255 255 255 255 255 255 84 84 84 84 84 84 54 54 54 54 165 165 165 165 165 165 54 54 84 84 84 84 84 84 255 255 255 255 255 255 255 255 255 255 255 255 255 255 255 255 
255 255 255 255 255 255 255 255 255 255 255 255 84 84 84 84 84 84 54 54 54 54 165 165 165 165 165 165 54 54 84 84 84 84 84 84 255 255 255 255 255 255 255 255 255 255 255 255 255 255 255 255 
255 255 255 255 255 255 255 255 255 255 255 255 117 117 54 54 54 54 54 54 54 54 117 117 54 54 54 54 117 117 54 54 117 117 255 255 255 255 255 255 255 255 255 255 255 255 255 255 255 255 255 255 
255 255 255 255 255 255 255 255 255 255 255 255 117 117 54 54 54 54 54 54 54 54 117 117 54 54 54 54 117 117 54 54 117 117 255 255 255 255 255 255 255 255 255 255 255 255 255 255 255 255 255 255 
255 255 255 255 255 255 255 255 255 255 84 84 54 54 54 54 117 117 0 0 132 132 143 143 117 117 0 0 117 117 54 54 84 84 255 255 255 255 255 255 255 255 255 255 255 255 255 255 255 255 255 255 
255 255 255 255 255 255 255 255 255 255 84 84 54 54 54 54 117 117 0 0 132 132 143 143 117 117 0 0 117 117 54 54 84 84 255 255 255 255 255 255 255 255 255 255 255 255 255 255 255 255 255 255 
255 255 255 255 255 255 255 255 255 255 84 84 255 255 54 54 143 143 165 165 143 143 165 165 143 143 143 143 117 117 54 54 84 84 255 255 255 255 84 84 255 255 255 255 255 255 255 255 255 255 255 255 
255 255 255 255 255 255 255 255 255 255 84 84 255 255 54 54 143 143 165 165 143 143 165 165 143 143 143 143 117 117 54 54 84 84 255 255 255 255 84 84 255 255 255 255 255 255 255 255 255 255 255 255 
255 255 255 255 255 255 255 255 84 84 255 255 255 255 255 255 143 143 165 165 117 117 84 84 117 117 143 143 117 117 255 255 255 255 84 84 84 84 255 255 255 255 255 255 255 255 255 255 255 255 255 255 
255 255 255 255 255 255 255 255 84 84 255 255 255 255 255 255 143 143 165 165 117 117 84 84 117 117 143 143 117 117 255 255 255 255 84 84 84 84 255 255 255 255 255 255 255 255 255 255 255 255 255 255 
255 255 255 255 255 255 255 255 255 255 255 255 255 255 255 255 84 84 117 117 54 54 54 54 54 54 117 117 84 84 54 54 255 255 255 255 255 255 255 255 255 255 255 255 255 255 255 255 255 255 255 255 
255 255 255 255 255 255 255 255 255 255 255 255 255 255 255 255 84 84 117 117 54 54 54 54 54 54 117 117 84 84 54 54 255 255 255 255 255 255 255 255 255 255 255 255 255 255 255 255 255 255 255 255 
255 255 255 255 255 255 255 255 255 255 255 255 255 255 255 255 54 54 84 84 165 165 165 165 165 165 84 84 54 54 54 54 84 84 255 255 255 255 255 255 255 255 255 255 255 255 255 255 255 255 255 255 
255 255 255 255 255 255 255 255 255 255 255 255 255 255 255 255 54 54 84 84 165 165 165 165 165 165 84 84 54 54 54 54 84 84 255 255 255 255 255 255 255 255 255 255 255 255 255 255 255 255 255 255 
255 255 255 255 255 255 255 255 255 255 255 255 255 255 22 22 22 22 143 143 84 84 84 84 84 84 132 132 22 22 22 22 84 84 255 255 255 255 255 255 255 255 255 255 255 255 255 255 255 255 255 255 
255 255 255 255 255 255 255 255 255 255 255 255 255 255 22 22 22 22 143 143 84 84 84 84 84 84 132 132 22 22 22 22 84 84 255 255 255 255 255 255 255 255 255 255 255 255 255 255 255 255 255 255 
255 255 255 255 255 255 255 255 255 255 255 255 14 14 14 14 22 22 165 165 143 143 132 132 132 132 254 254 22 22 14 14 14 14 14 14 14 14 255 255 255 255 255 255 255 255 255 255 255 255 255 255 
255 255 255 255 255 255 255 255 255 255 255 255 14 14 14 14 22 22 165 165 143 143 132 132 132 132 254 254 22 22 14 14 14 14 14 14 14 14 255 255 255 255 255 255 255 255 255 255 255 255 255 255 
255 255 255 255 255 255 255 255 14 14 14 14 14 14 14 14 22 22 179 179 165 165 143 143 179 179 254 254 22 22 14 14 14 14 14 14 14 14 14 14 14 14 255 255 255 255 255 255 255 255 255 255 
255 255 255 255 255 255 255 255 14 14 14 14 14 14 14 14 22 22 179 179 165 165 143 143 179 179 254 254 22 22 14 14 14 14 14 14 14 14 14 14 14 14 255 255 255 255 255 255 255 255 255 255 
255 255 255 255 255 255 14 14 5 5 14 14 14 14 14 14 22 22 179 179 179 179 165 165 254 254 254 254 22 22 14 14 14 14 14 14 14 14 5 5 14 14 14 14 255 255 255 255 255 255 255 255 
255 255 255 255 255 255 14 14 5 5 14 14 14 14 14 14 22 22 179 179 179 179 165 165 254 254 254 254 22 22 14 14 14 14 14 14 14 14 5 5 14 14 14 14 255 255 255 255 255 255 255 255 
255 255 255 255 14 14 14 14 5 5 14 14 14 14 14 14 22 22 254 254 179 179 165 165 254 254 179 179 22 22 14 14 14 14 14 14 14 14 5 5 14 14 14 14 255 255 255 255 255 255 255 255 
255 255 255 255 14 14 14 14 5 5 14 14 14 14 14 14 22 22 254 254 179 179 165 165 254 254 179 179 22 22 14 14 14 14 14 14 14 14 5 5 14 14 14 14 255 255 255 255 255 255 255 255 
255 255 255 255 14 14 14 14 5 5 14 14 14 14 5 5 22 22 54 54 179 179 143 143 254 254 179 179 22 22 5 5 14 14 14 14 14 14 5 5 14 14 14 14 14 14 255 255 255 255 255 255 
255 255 255 255 14 14 14 14 5 5 14 14 14 14 5 5 22 22 54 54 179 179 143 143 254 254 179 179 22 22 5 5 14 14 14 14 14 14 5 5 14 14 14 14 14 14 255 255 255 255 255 255 
255 255 255 255 14 14 14 14 5 5 14 14 14 14 5 5 22 22 22 22 54 54 179 179 254 254 179 179 22 22 5 5 14 14 14 14 14 14 5 5 5 5 14 14 14 14 255 255 255 255 255 255 
255 255 255 255 14 14 14 14 5 5 14 14 14 14 5 5 22 22 22 22 54 54 179 179 254 254 179 179 22 22 5 5 14 14 14 14 14 14 5 5 5 5 14 14 14 14 255 255 255 255 255 255 
255 255 5 5 5 5 14 14 5 5 14 14 14 14 5 5 22 22 179 179 22 22 54 54 54 54 179 179 179 179 22 22 5 5 14 14 5 5 5 5 5 5 14 14 14 14 255 255 255 255 255 255 
255 255 5 5 5 5 14 14 5 5 14 14 14 14 5 5 22 22 179 179 22 22 54 54 54 54 179 179 179 179 22 22 5 5 14 14 5 5 5 5 5 5 14 14 14 14 255 255 255 255 255 255 
255 255 14 14 14 14 5 5 5 5 5 5 14 14 5 5 22 22 179 179 179 179 22 22 22 22 54 54 54 54 22 22 5 5 14 14 5 5 5 5 14 14 5 5 5 5 5 5 255 255 255 255 
255 255 14 14 14 14 5 5 5 5 5 5 14 14 5 5 22 22 179 179 179 179 22 22 22 22 54 54 54 54 22 22 5 5 14 14 5 5 5 5 14 14 5 5 5 5 5 5 255 255 255 255 
255 255 5 5 5 5 14 14 5 5 5 5 5 5 5 5 22 22 179 179 179 179 179 179 179 179 22 22 54 54 22 22 5 5 5 5 5 5 255 255 5 5 14 14 14 14 5 5 255 255 255 255 
255 255 5 5 5 5 14 14 5 5 5 5 5 5 5 5 22 22 179 179 179 179 179 179 179 179 22 22 54 54 22 22 5 5 5 5 5 5 255 255 5 5 14 14 14 14 5 5 255 255 255 255 
5 5 14 14 14 14 5 5 255 255 5 5 5 5 5 5 84 84 179 179 84 84 84 84 117 117 117 117 179 179 117 117 5 5 5 5 5 5 255 255 14 14 14 14 14 14 5 5 255 255 255 255 
5 5 14 14 14 14 5 5 255 255 5 5 5 5 5 5 84 84 179 179 84 84 84 84 117 117 117 117 179 179 117 117 5 5 5 5 5 5 255 255 14 14 14 14 14 14 5 5 255 255 255 255 
5 5 14 14 14 14 14 14 5 5 5 5 5 5 5 5 22 22 14 14 84 84 14 14 14 14 84 84 14 14 22 22 5 5 5 5 5 5 255 255 14 14 14 14 14 14 5 5 255 255 255 255 
5 5 14 14 14 14 14 14 5 5 5 5 5 5 5 5 22 22 14 14 84 84 14 14 14 14 84 84 14 14 22 22 5 5 5 5 5 5 255 255 14 14 14 14 14 14 5 5 255 255 255 255 
5 5 14 14 14 14 14 14 5 5 5 5 5 5 5 5 22 22 14 14 117 117 117 117 14 14 84 84 14 14 22 22 5 5 5 5 5 5 5 5 14 14 14 14 5 5 5 5 255 255 255 255 
5 5 14 14 14 14 14 14 5 5 5 5 5 5 5 5 22 22 14 14 117 117 117 117 14 14 84 84 14 14 22 22 5 5 5 5 5 5 5 5 14 14 14 14 5 5 5 5 255 255 255 255 
54 54 54 54 14 14 14 14 5 5 5 5 5 5 5 5 84 84 14 14 84 84 14 14 14 14 84 84 14 14 117 117 5 5 5 5 5 5 5 5 14 14 14 14 54 54 54 54 255 255 255 255 
54 54 54 54 14 14 14 14 5 5 5 5 5 5 5 5 84 84 14 14 84 84 14 14 14 14 84 84 14 14 117 117 5 5 5 5 5 5 5 5 14 14 14 14 54 54 54 54 255 255 255 255 
14 14 14 14 54 54 54 54 14 14 5 5 5 5 5 5 22 22 0 0 84 84 84 84 84 84 84 84 0 0 22 22 5 5 5 5 5 5 5 5 54 54 54 54 14 14 14 14 255 255 255 255 
14 14 14 14 54 54 54 54 14 14 5 5 5 5 5 5 22 22 0 0 84 84 84 84 84 84 84 84 0 0 22 22 5 5 5 5 5 5 5 5 54 54 54 54 14 14 14 14 255 255 255 255 
255 255 14 14 14 14 14 14 14 14 5 5 5 5 5 5 22 22 0 0 0 0 0 0 0 0 0 0 0 0 22 22 5 5 5 5 5 5 14 14 14 14 14 14 14 14 255 255 255 255 255 255 
255 255 14 14 14 14 14 14 14 14 5 5 5 5 5 5 22 22 0 0 0 0 0 0 0 0 0 0 0 0 22 22 5 5 5 5 5 5 14 14 14 14 14 14 14 14 255 255 255 255 255 255 
255 255 143 143 143 143 132 132 14 14 5 5 5 5 5 5 84 84 0 0 0 0 0 0 0 0 0 0 0 0 84 84 5 5 5 5 5 5 14 14 132 132 143 143 143 143 255 255 255 255 255 255 
255 255 143 143 143 143 132 132 14 14 5 5 5 5 5 5 84 84 0 0 0 0 0 0 0 0 0 0 0 0 84 84 5 5 5 5 5 5 14 14 132 132 143 143 143 143 255 255 255 255 255 255 
255 255 132 132 143 143 143 143 132 132 14 14 5 5 5 5 22 22 0 0 0 0 0 0 0 0 0 0 0 0 0 0 22 22 5 5 5 5 132 132 143 143 143 143 132 132 255 255 255 255 255 255 
255 255 132 132 143 143 143 143 132 132 14 14 5 5 5 5 22 22 0 0 0 0 0 0 0 0 0 0 0 0 0 0 22 22 5 5 5 5 132 132 143 143 143 143 132 132 255 255 255 255 255 255 
255 255 255 255 143 143 132 132 14 14 14 14 0 0 5 5 22 22 0 0 0 0 0 0 0 0 0 0 0 0 0 0 22 22 5 5 5 5 14 14 132 132 143 143 132 132 255 255 255 255 255 255 
255 255 255 255 143 143 132 132 14 14 14 14 0 0 5 5 22 22 0 0 0 0 0 0 0 0 0 0 0 0 0 0 22 22 5 5 5 5 14 14 132 132 143 143 132 132 255 255 255 255 255 255 
255 255 255 255 255 255 132 132 14 14 14 14 5 5 5 5 84 84 0 0 0 0 0 0 0 0 0 0 0 0 0 0 84 84 5 5 5 5 14 14 132 132 132 132 255 255 255 255 255 255 255 255 
255 255 255 255 255 255 132 132 14 14 14 14 5 5 5 5 84 84 0 0 0 0 0 0 0 0 0 0 0 0 0 0 84 84 5 5 5 5 14 14 132 132 132 132 255 255 255 255 255 255 255 255 
255 255 255 255 255 255 255 255 14 14 14 14 5 5 5 5 22 22 0 0 0 0 0 0 0 0 0 0 0 0 0 0 22 22 5 5 5 5 0 0 14 14 255 255 255 255 255 255 255 255 255 255 
255 255 255 255 255 255 255 255 14 14 14 14 5 5 5 5 22 22 0 0 0 0 0 0 0 0 0 0 0 0 0 0 22 22 5 5 5 5 0 0 14 14 255 255 255 255 255 255 255 255 255 255 
255 255 255 255 255 255 255 255 14 14 14 14 0 0 5 5 22 22 0 0 0 0 0 0 0 0 0 0 0 0 0 0 22 22 5 5 5 5 0 0 14 14 255 255 255 255 255 255 255 255 255 255 
255 255 255 255 255 255 255 255 14 14 14 14 0 0 5 5 22 22 0 0 0 0 0 0 0 0 0 0 0 0 0 0 22 22 5 5 5 5 0 0 14 14 255 255 255 255 255 255 255 255 255 255 
255 255 255 255 255 255 255 255 14 14 14 14 0 0 5 5 84 84 0 0 0 0 0 0 0 0 255 255 0 0 0 0 0 0 84 84 5 5 0 0 14 14 255 255 255 255 255 255 255 255 255 255 
255 255 255 255 255 255 255 255 14 14 14 14 0 0 5 5 84 84 0 0 0 0 0 0 0 0 255 255 0 0 0 0 0 0 84 84 5 5 0 0 14 14 255 255 255 255 255 255 255 255 255 255 
255 255 255 255 255 255 255 255 14 14 14 14 0 0 5 5 22 22 0 0 0 0 0 0 0 0 255 255 0 0 0 0 0 0 22 22 84 84 0 0 84 84 255 255 255 255 255 255 255 255 255 255 
255 255 255 255 255 255 255 255 14 14 14 14 0 0 5 5 22 22 0 0 0 0 0 0 0 0 255 255 0 0 0 0 0 0 22 22 84 84 0 0 84 84 255 255 255 255 255 255 255 255 255 255 
255 255 255 255 255 255 255 255 84 84 84 84 0 0 84 84 22 22 0 0 0 0 0 0 0 0 255 255 0 0 0 0 0 0 22 22 51 51 0 0 51 51 255 255 255 255 255 255 255 255 255 255 
255 255 255 255 255 255 255 255 84 84 84 84 0 0 84 84 22 22 0 0 0 0 0 0 0 0 255 255 0 0 0 0 0 0 22 22 51 51 0 0 51 51 255 255 255 255 255 255 255 255 255 255 
255 255 255 255 255 255 255 255 51 51 51 51 0 0 22 22 0 0 0 0 0 0 0 0 0 0 255 255 0 0 0 0 0 0 0 0 0 0 0 0 0 0 255 255 255 255 255 255 255 255 255 255 
255 255 255 255 255 255 255 255 51 51 51 51 0 0 22 22 0 0 0 0 0 0 0 0 0 0 255 255 0 0 0 0 0 0 0 0 0 0 0 0 0 0 255 255 255 255 255 255 255 255 255 255 
255 255 255 255 255 255 255 255 255 255 255 255 0 0 0 0 0 0 0 0 0 0 0 0 0 0 255 255 255 255 0 0 0 0 0 0 0 0 0 0 0 0 255 255 255 255 255 255 255 255 255 255 
255 255 255 255 255 255 255 255 255 255 255 255 0 0 0 0 0 0 0 0 0 0 0 0 0 0 255 255 255 255 0 0 0 0 0 0 0 0 0 0 0 0 255 255 255 255 255 255 255 255 255 255 
255 255 255 255 255 255 255 255 255 255 255 255 14 14 14 14 14 14 14 14 14 14 14 14 255 255 255 255 255 255 255 255 14 14 14 14 14 14 14 14 14 14 14 14 255 255 255 255 255 255 255 255 
255 255 255 255 255 255 255 255 255 255 255 255 14 14 14 14 14 14 14 14 14 14 14 14 255 255 255 255 255 255 255 255 14 14 14 14 14 14 14 14 14 14 14 14 255 255 255 255 255 255 255 255 
255 255 255 255 255 255 255 255 255 255 255 255 14 14 14 14 14 14 14 14 14 14 14 14 14 14 255 255 255 255 255 255 14 14 14 14 14 14 14 14 14 14 14 14 255 255 255 255 255 255 255 255 
255 255 255 255 255 255 255 255 255 255 255 255 14 14 14 14 14 14 14 14 14 14 14 14 14 14 255 255 255 255 255 255 14 14 14 14 14 14 14 14 14 14 14 14 255 255 255 255 255 255 255 255 
255 255 255 255 255 255 255 255 255 255 22 22 22 22 22 22 22 22 22 22 22 22 14 14 14 14 255 255 255 255 22 22 22 22 22 22 22 22 22 22 22 22 22 22 22 22 255 255 255 255 255 255 
255 255 255 255 255 255 255 255 255 255 22 22 22 22 22 22 22 22 22 22 22 22 14 14 14 14 255 255 255 255 22 22 22 22 22 22 22 22 22 22 22 22 22 22 22 22 255 255 255 255 255 255 
255 255 255 255 255 255 255 255 255 255 22 22 22 22 22 22 22 22 22 22 22 22 14 14 14 14 255 255 255 255 22 22 22 22 22 22 22 22 22 22 22 22 22 22 22 22 255 255 255 255 255 255 
255 255 255 255 255 255 255 255 255 255 22 22 22 22 22 22 22 22 22 22 22 22 14 14 14 14 255 255 255 255 22 22 22 22 22 22 22 22 22 22 22 22 22 22 22 22 255 255 255 255 255 255 
255 255 255 255 255 255 255 255 255 255 22 22 22 22 22 22 22 22 22 22 22 22 14 14 14 14 255 255 255 255 22 22 22 22 22 22 22 22 22 22 22 22 22 22 22 22 255 255 255 255 255 255 
255 255 255 255 255 255 255 255 255 255 22 22 22 22 22 22 22 22 22 22 22 22 14 14 14 14 255 255 255 255 22 22 22 22 22 22 22 22 22 22 22 22 22 22 22 22 255 255 255 255 255 255 
255 255 255 255 255 255 255 255 255 255 14 14 14 14 14 14 14 14 14 14 14 14 14 14 14 14 255 255 255 255 255 255 14 14 14 14 14 14 14 14 14 14 14 14 14 14 255 255 255 255 255 255 
255 255 255 255 255 255 255 255 255 255 14 14 14 14 14 14 14 14 14 14 14 14 14 14 14 14 255 255 255 255 255 255 14 14 14 14 14 14 14 14 14 14 14 14 14 14 255 255 255 255 255 255 
255 255 255 255 255 255 255 255 255 255 255 255 255 255 14 14 14 14 14 14 14 14 255 255 255 255 255 255 255 255 255 255 255 255 255 255 14 14 14 14 14 14 14 14 255 255 255 255 255 255 255 255 
255 255 255 255 255 255 255 255 255 255 255 255 255 255 14 14 14 14 14 14 14 14 255 255 255 255 255 255 255 255 255 255 255 255 255 255 14 14 14 14 14 14 14 14 255 255 255 255 255 255 255 255 
255 255 255 255 255 255 255 255 255 255 255 255 255 255 14 14 22 22 22 22 22 22 14 14 255 255 255 255 255 255 255 255 255 255 255 255 14 14 22 22 22 22 22 22 14 14 255 255 255 255 255 255 
255 255 255 255 255 255 255 255 255 255 255 255 255 255 14 14 22 22 22 22 22 22 14 14 255 255 255 255 255 255 255 255 255 255 255 255 14 14 22 22 22 22 22 22 14 14 255 255 255 255 255 255 
255 255 255 255 255 255 255 255 255 255 14 14 14 14 22 22 22 22 22 22 22 22 22 22 255 255 255 255 255 255 255 255 255 255 255 255 22 22 22 22 22 22 22 22 22 22 14 14 14 14 255 255 
255 255 255 255 255 255 255 255 255 255 14 14 14 14 22 22 22 22 22 22 22 22 22 22 255 255 255 255 255 255 255 255 255 255 255 255 22 22 22 22 22 22 22 22 22 22 14 14 14 14 255 255 
255 255 255 255 255 255 255 255 14 14 22 22 22 22 22 22 22 22 22 22 22 22 22 22 255 255 255 255 255 255 255 255 255 255 255 255 22 22 22 22 22 22 22 22 22 22 22 22 22 22 14 14 
255 255 255 255 255 255 255 255 14 14 22 22 22 22 22 22 22 22 22 22 22 22 22 22 255 255 255 255 255 255 255 255 255 255 255 255 22 22 22 22 22 22 22 22 22 22 22 22 22 22 14 14 
