P3
52 94
255
255 255 255 255 255 255 255 255 255 255 255 255 255 255 255 255 255 255 255 255 255 255 255 255 255 255 255 255 255 255 255 255 255 255 255 255 255 255 255 255 255 255 255 255 255 255 255 255 255 255 255 255 255 255 139 75 15 139 75 15 187 103 51 187 103 51 187 103 51 187 103 51 187 103 51 187 103 51 139 75 15 139 75 15 255 255 255 255 255 255 255 255 255 255 255 255 255 255 255 255 255 255 255 255 255 255 255 255 255 255 255 255 255 255 255 255 255 255 255 255 255 255 255 255 255 255 255 255 255 255 255 255 255 255 255 255 255 255 255 255 255 255 255 255 255 255 255 255 255 255 255 255 255 255 255 255 
255 255 255 255 255 255 255 255 255 255 255 255 255 255 255 255 255 255 255 255 255 255 255 255 255 255 255 255 255 255 255 255 255 255 255 255 255 255 255 255 255 255 255 255 255 255 255 255 255 255 255 255 255 255 139 75 15 139 75 15 187 103 51 187 103 51 187 103 51 187 103 51 187 103 51 187 103 51 139 75 15 139 75 15 255 255 255 255 255 255 255 255 255 255 255 255 255 255 255 255 255 255 255 255 255 255 255 255 255 255 255 255 255 255 255 255 255 255 255 255 255 255 255 255 255 255 255 255 255 255 255 255 255 255 255 255 255 255 255 255 255 255 255 255 255 255 255 255 255 255 255 255 255 255 255 255 
255 255 255 255 255 255 255 255 255 255 255 255 255 255 255 255 255 255 255 255 255 255 255 255 255 255 255 255 255 255 255 255 255 255 255 255 255 255 255 255 255 255 139 75 15 139 75 15 139 75 15 139 75 15 187 103 51 187 103 51 187 103 51 187 103 51 139 75 15 139 75 15 139 75 15 139 75 15 139 75 15 139 75 15 139 75 15 139 75 15 139 75 15 139 75 15 255 255 255 255 255 255 255 255 255 255 255 255 255 255 255 255 255 255 255 255 255 255 255 255 255 255 255 255 255 255 255 255 255 255 255 255 255 255 255 255 255 255 255 255 255 255 255 255 255 255 255 255 255 255 255 255 255 255 255 255 
255 255 255 255 255 255 255 255 255 255 255 255 255 255 255 255 255 255 255 255 255 255 255 255 255 255 255 255 255 255 255 255 255 255 255 255 255 255 255 255 255 255 139 75 15 139 75 15 139 75 15 139 75 15 187 103 51 187 103 51 187 103 51 187 103 51 139 75 15 139 75 15 139 75 15 139 75 15 139 75 15 139 75 15 139 75 15 139 75 15 139 75 15 139 75 15 255 255 255 255 255 255 255 255 255 255 255 255 255 255 255 255 255 255 255 255 255 255 255 255 255 255 255 255 255 255 255 255 255 255 255 255 255 255 255 255 255 255 255 255 255 255 255 255 255 255 255 255 255 255 255 255 255 255 255 255 
255 255 255 255 255 255 255 255 255 255 255 255 255 255 255 255 255 255 255 255 255 255 255 255 255 255 255 255 255 255 255 255 255 255 255 255 139 75 15 139 75 15 187 103 51 187 103 51 187 103 51 187 103 51 187 103 51 187 103 51 139 75 15 139 75 15 92 48 4 92 48 4 92 48 4 92 48 4 92 48 4 92 48 4 139 75 15 139 75 15 187 103 51 187 103 51 139 75 15 139 75 15 255 255 255 255 255 255 255 255 255 255 255 255 255 255 255 255 255 255 255 255 255 255 255 255 255 255 255 255 255 255 255 255 255 255 255 255 255 255 255 255 255 255 255 255 255 255 255 255 255 255 255 255 255 255 
255 255 255 255 255 255 255 255 255 255 255 255 255 255 255 255 255 255 255 255 255 255 255 255 255 255 255 255 255 255 255 255 255 255 255 255 139 75 15 139 75 15 187 103 51 187 103 51 187 103 51 187 103 51 187 103 51 187 103 51 139 75 15 139 75 15 92 48 4 92 48 4 92 48 4 92 48 4 92 48 4 92 48 4 139 75 15 139 75 15 187 103 51 187 103 51 139 75 15 139 75 15 255 255 255 255 255 255 255 255 255 255 255 255 255 255 255 255 255 255 255 255 255 255 255 255 255 255 255 255 255 255 255 255 255 255 255 255 255 255 255 255 255 255 255 255 255 255 255 255 255 255 255 255 255 255 
255 255 255 255 255 255 255 255 255 255 255 255 255 255 255 255 255 255 255 255 255 255 255 255 255 255 255 255 255 255 255 255 255 255 255 255 139 75 15 139 75 15 139 75 15 139 75 15 139 75 15 139 75 15 92 48 4 92 48 4 92 48 4 92 48 4 251 143 127 251 143 127 251 143 127 251 143 127 251 143 127 251 143 127 92 48 4 92 48 4 139 75 15 139 75 15 139 75 15 139 75 15 139 75 15 139 75 15 255 255 255 255 255 255 255 255 255 255 255 255 255 255 255 255 255 255 255 255 255 255 255 255 255 255 255 255 255 255 255 255 255 255 255 255 255 255 255 255 255 255 255 255 255 255 255 255 
255 255 255 255 255 255 255 255 255 255 255 255 255 255 255 255 255 255 255 255 255 255 255 255 255 255 255 255 255 255 255 255 255 255 255 255 139 75 15 139 75 15 139 75 15 139 75 15 139 75 15 139 75 15 92 48 4 92 48 4 92 48 4 92 48 4 251 143 127 251 143 127 251 143 127 251 143 127 251 143 127 251 143 127 92 48 4 92 48 4 139 75 15 139 75 15 139 75 15 139 75 15 139 75 15 139 75 15 255 255 255 255 255 255 255 255 255 255 255 255 255 255 255 255 255 255 255 255 255 255 255 255 255 255 255 255 255 255 255 255 255 255 255 255 255 255 255 255 255 255 255 255 255 255 255 255 
255 255 255 255 255 255 255 255 255 255 255 255 255 255 255 255 255 255 255 255 255 255 255 255 255 255 255 255 255 255 255 255 255 255 255 255 187 103 51 187 103 51 92 48 4 92 48 4 92 48 4 92 48 4 92 48 4 92 48 4 92 48 4 92 48 4 187 103 51 187 103 51 92 48 4 92 48 4 92 48 4 92 48 4 187 103 51 187 103 51 92 48 4 92 48 4 187 103 51 187 103 51 255 255 255 255 255 255 255 255 255 255 255 255 255 255 255 255 255 255 255 255 255 255 255 255 255 255 255 255 255 255 255 255 255 255 255 255 255 255 255 255 255 255 255 255 255 255 255 255 255 255 255 255 255 255 
255 255 255 255 255 255 255 255 255 255 255 255 255 255 255 255 255 255 255 255 255 255 255 255 255 255 255 255 255 255 255 255 255 255 255 255 187 103 51 187 103 51 92 48 4 92 48 4 92 48 4 92 48 4 92 48 4 92 48 4 92 48 4 92 48 4 187 103 51 187 103 51 92 48 4 92 48 4 92 48 4 92 48 4 187 103 51 187 103 51 92 48 4 92 48 4 187 103 51 187 103 51 255 255 255 255 255 255 255 255 255 255 255 255 255 255 255 255 255 255 255 255 255 255 255 255 255 255 255 255 255 255 255 255 255 255 255 255 255 255 255 255 255 255 255 255 255 255 255 255 255 255 255 255 255 255 
255 255 255 255 255 255 255 255 255 255 255 255 255 255 255 255 255 255 255 255 255 255 255 255 255 255 255 255 255 255 139 75 15 139 75 15 92 48 4 92 48 4 92 48 4 92 48 4 187 103 51 187 103 51 0 0 0 0 0 0 199 115 103 199 115 103 243 119 91 243 119 91 187 103 51 187 103 51 0 0 0 0 0 0 187 103 51 187 103 51 92 48 4 92 48 4 139 75 15 139 75 15 255 255 255 255 255 255 255 255 255 255 255 255 255 255 255 255 255 255 255 255 255 255 255 255 255 255 255 255 255 255 255 255 255 255 255 255 255 255 255 255 255 255 255 255 255 255 255 255 255 255 255 255 255 255 
255 255 255 255 255 255 255 255 255 255 255 255 255 255 255 255 255 255 255 255 255 255 255 255 255 255 255 255 255 255 139 75 15 139 75 15 92 48 4 92 48 4 92 48 4 92 48 4 187 103 51 187 103 51 0 0 0 0 0 0 199 115 103 199 115 103 243 119 91 243 119 91 187 103 51 187 103 51 0 0 0 0 0 0 187 103 51 187 103 51 92 48 4 92 48 4 139 75 15 139 75 15 255 255 255 255 255 255 255 255 255 255 255 255 255 255 255 255 255 255 255 255 255 255 255 255 255 255 255 255 255 255 255 255 255 255 255 255 255 255 255 255 255 255 255 255 255 255 255 255 255 255 255 255 255 255 
255 255 255 255 255 255 255 255 255 255 255 255 255 255 255 255 255 255 255 255 255 255 255 255 255 255 255 255 255 255 139 75 15 139 75 15 255 255 255 255 255 255 92 48 4 92 48 4 243 119 91 243 119 91 251 143 127 251 143 127 243 119 91 243 119 91 251 143 127 251 143 127 243 119 91 243 119 91 243 119 91 243 119 91 187 103 51 187 103 51 92 48 4 92 48 4 139 75 15 139 75 15 255 255 255 255 255 255 255 255 255 255 255 255 139 75 15 139 75 15 255 255 255 255 255 255 255 255 255 255 255 255 255 255 255 255 255 255 255 255 255 255 255 255 255 255 255 255 255 255 255 255 255 255 255 255 
255 255 255 255 255 255 255 255 255 255 255 255 255 255 255 255 255 255 255 255 255 255 255 255 255 255 255 255 255 255 139 75 15 139 75 15 255 255 255 255 255 255 92 48 4 92 48 4 243 119 91 243 119 91 251 143 127 251 143 127 243 119 91 243 119 91 251 143 127 251 143 127 243 119 91 243 119 91 243 119 91 243 119 91 187 103 51 187 103 51 92 48 4 92 48 4 139 75 15 139 75 15 255 255 255 255 255 255 255 255 255 255 255 255 139 75 15 139 75 15 255 255 255 255 255 255 255 255 255 255 255 255 255 255 255 255 255 255 255 255 255 255 255 255 255 255 255 255 255 255 255 255 255 255 255 255 
255 255 255 255 255 255 255 255 255 255 255 255 255 255 255 255 255 255 255 255 255 255 255 255 139 75 15 139 75 15 255 255 255 255 255 255 255 255 255 255 255 255 255 255 255 255 255 255 243 119 91 243 119 91 251 143 127 251 143 127 187 103 51 187 103 51 139 75 15 139 75 15 187 103 51 187 103 51 243 119 91 243 119 91 187 103 51 187 103 51 255 255 255 255 255 255 255 255 255 255 255 255 139 75 15 139 75 15 139 75 15 139 75 15 255 255 255 255 255 255 255 255 255 255 255 255 255 255 255 255 255 255 255 255 255 255 255 255 255 255 255 255 255 255 255 255 255 255 255 255 255 255 255 255 255 255 
255 255 255 255 255 255 255 255 255 255 255 255 255 255 255 255 255 255 255 255 255 255 255 255 139 75 15 139 75 15 255 255 255 255 255 255 255 255 255 255 255 255 255 255 255 255 255 255 243 119 91 243 119 91 251 143 127 251 143 127 187 103 51 187 103 51 139 75 15 139 75 15 187 103 51 187 103 51 243 119 91 243 119 91 187 103 51 187 103 51 255 255 255 255 255 255 255 255 255 255 255 255 139 75 15 139 75 15 139 75 15 139 75 15 255 255 255 255 255 255 255 255 255 255 255 255 255 255 255 255 255 255 255 255 255 255 255 255 255 255 255 255 255 255 255 255 255 255 255 255 255 255 255 255 255 255 
255 255 255 255 255 255 255 255 255 255 255 255 255 255 255 255 255 255 255 255 255 255 255 255 255 255 255 255 255 255 255 255 255 255 255 255 255 255 255 255 255 255 255 255 255 255 255 255 139 75 15 139 75 15 187 103 51 187 103 51 92 48 4 92 48 4 92 48 4 92 48 4 92 48 4 92 48 4 187 103 51 187 103 51 139 75 15 139 75 15 92 48 4 92 48 4 255 255 255 255 255 255 255 255 255 255 255 255 255 255 255 255 255 255 255 255 255 255 255 255 255 255 255 255 255 255 255 255 255 255 255 255 255 255 255 255 255 255 255 255 255 255 255 255 255 255 255 255 255 255 255 255 255 255 255 255 
255 255 255 255 255 255 255 255 255 255 255 255 255 255 255 255 255 255 255 255 255 255 255 255 255 255 255 255 255 255 255 255 255 255 255 255 255 255 255 255 255 255 255 255 255 255 255 255 139 75 15 139 75 15 187 103 51 187 103 51 92 48 4 92 48 4 92 48 4 92 48 4 92 48 4 92 48 4 187 103 51 187 103 51 139 75 15 139 75 15 92 48 4 92 48 4 255 255 255 255 255 255 255 255 255 255 255 255 255 255 255 255 255 255 255 255 255 255 255 255 255 255 255 255 255 255 255 255 255 255 255 255 255 255 255 255 255 255 255 255 255 255 255 255 255 255 255 255 255 255 255 255 255 255 255 255 
255 255 255 255 255 255 255 255 255 255 255 255 255 255 255 255 255 255 255 255 255 255 255 255 255 255 255 255 255 255 255 255 255 255 255 255 255 255 255 255 255 255 255 255 255 255 255 255 92 48 4 92 48 4 139 75 15 139 75 15 251 143 127 251 143 127 251 143 127 251 143 127 251 143 127 251 143 127 139 75 15 139 75 15 92 48 4 92 48 4 92 48 4 92 48 4 139 75 15 139 75 15 255 255 255 255 255 255 255 255 255 255 255 255 255 255 255 255 255 255 255 255 255 255 255 255 255 255 255 255 255 255 255 255 255 255 255 255 255 255 255 255 255 255 255 255 255 255 255 255 255 255 255 255 255 255 
255 255 255 255 255 255 255 255 255 255 255 255 255 255 255 255 255 255 255 255 255 255 255 255 255 255 255 255 255 255 255 255 255 255 255 255 255 255 255 255 255 255 255 255 255 255 255 255 92 48 4 92 48 4 139 75 15 139 75 15 251 143 127 251 143 127 251 143 127 251 143 127 251 143 127 251 143 127 139 75 15 139 75 15 92 48 4 92 48 4 92 48 4 92 48 4 139 75 15 139 75 15 255 255 255 255 255 255 255 255 255 255 255 255 255 255 255 255 255 255 255 255 255 255 255 255 255 255 255 255 255 255 255 255 255 255 255 255 255 255 255 255 255 255 255 255 255 255 255 255 255 255 255 255 255 255 
255 255 255 255 255 255 255 255 255 255 255 255 255 255 255 255 255 255 255 255 255 255 255 255 255 255 255 255 255 255 255 255 255 255 255 255 255 255 255 255 255 255 103 0 0 103 0 0 103 0 0 103 0 0 243 119 91 243 119 91 139 75 15 139 75 15 139 75 15 139 75 15 139 75 15 139 75 15 199 115 103 199 115 103 103 0 0 103 0 0 103 0 0 103 0 0 139 75 15 139 75 15 255 255 255 255 255 255 255 255 255 255 255 255 255 255 255 255 255 255 255 255 255 255 255 255 255 255 255 255 255 255 255 255 255 255 255 255 255 255 255 255 255 255 255 255 255 255 255 255 255 255 255 255 255 255 
255 255 255 255 255 255 255 255 255 255 255 255 255 255 255 255 255 255 255 255 255 255 255 255 255 255 255 255 255 255 255 255 255 255 255 255 255 255 255 255 255 255 103 0 0 103 0 0 103 0 0 103 0 0 243 119 91 243 119 91 139 75 15 139 75 15 139 75 15 139 75 15 139 75 15 139 75 15 199 115 103 199 115 103 103 0 0 103 0 0 103 0 0 103 0 0 139 75 15 139 75 15 255 255 255 255 255 255 255 255 255 255 255 255 255 255 255 255 255 255 255 255 255 255 255 255 255 255 255 255 255 255 255 255 255 255 255 255 255 255 255 255 255 255 255 255 255 255 255 255 255 255 255 255 255 255 
255 255 255 255 255 255 255 255 255 255 255 255 255 255 255 255 255 255 255 255 255 255 255 255 255 255 255 255 255 255 255 255 255 255 255 255 31 0 103 31 0 103 67 0 0 67 0 0 103 0 0 103 0 0 251 143 127 251 143 127 243 119 91 243 119 91 199 115 103 199 115 103 199 115 103 199 115 103 251 255 255 251 255 255 103 0 0 103 0 0 67 0 0 67 0 0 31 0 103 31 0 103 31 0 103 31 0 103 31 0 103 31 0 103 255 255 255 255 255 255 255 255 255 255 255 255 255 255 255 255 255 255 255 255 255 255 255 255 255 255 255 255 255 255 255 255 255 255 255 255 255 255 255 255 255 255 
255 255 255 255 255 255 255 255 255 255 255 255 255 255 255 255 255 255 255 255 255 255 255 255 255 255 255 255 255 255 255 255 255 255 255 255 31 0 103 31 0 103 67 0 0 67 0 0 103 0 0 103 0 0 251 143 127 251 143 127 243 119 91 243 119 91 199 115 103 199 115 103 199 115 103 199 115 103 251 255 255 251 255 255 103 0 0 103 0 0 67 0 0 67 0 0 31 0 103 31 0 103 31 0 103 31 0 103 31 0 103 31 0 103 255 255 255 255 255 255 255 255 255 255 255 255 255 255 255 255 255 255 255 255 255 255 255 255 255 255 255 255 255 255 255 255 255 255 255 255 255 255 255 255 255 255 
255 255 255 255 255 255 255 255 255 255 255 255 255 255 255 255 255 255 255 255 255 255 255 255 31 0 103 31 0 103 31 0 103 31 0 103 31 0 103 31 0 103 67 0 0 67 0 0 103 0 0 103 0 0 179 179 179 179 179 179 251 143 127 251 143 127 243 119 91 243 119 91 179 179 179 179 179 179 251 255 255 251 255 255 103 0 0 103 0 0 67 0 0 67 0 0 31 0 103 31 0 103 31 0 103 31 0 103 31 0 103 31 0 103 31 0 103 31 0 103 31 0 103 31 0 103 255 255 255 255 255 255 255 255 255 255 255 255 255 255 255 255 255 255 255 255 255 255 255 255 255 255 255 255 255 255 
255 255 255 255 255 255 255 255 255 255 255 255 255 255 255 255 255 255 255 255 255 255 255 255 31 0 103 31 0 103 31 0 103 31 0 103 31 0 103 31 0 103 67 0 0 67 0 0 103 0 0 103 0 0 179 179 179 179 179 179 251 143 127 251 143 127 243 119 91 243 119 91 179 179 179 179 179 179 251 255 255 251 255 255 103 0 0 103 0 0 67 0 0 67 0 0 31 0 103 31 0 103 31 0 103 31 0 103 31 0 103 31 0 103 31 0 103 31 0 103 31 0 103 31 0 103 255 255 255 255 255 255 255 255 255 255 255 255 255 255 255 255 255 255 255 255 255 255 255 255 255 255 255 255 255 255 
255 255 255 255 255 255 255 255 255 255 255 255 255 255 255 255 255 255 31 0 103 31 0 103 0 0 67 0 0 67 31 0 103 31 0 103 31 0 103 31 0 103 67 0 0 67 0 0 103 0 0 103 0 0 179 179 179 179 179 179 179 179 179 179 179 179 251 143 127 251 143 127 251 255 255 251 255 255 251 255 255 251 255 255 103 0 0 103 0 0 67 0 0 67 0 0 31 0 103 31 0 103 31 0 103 31 0 103 31 0 103 31 0 103 0 0 67 0 0 67 31 0 103 31 0 103 31 0 103 31 0 103 255 255 255 255 255 255 255 255 255 255 255 255 255 255 255 255 255 255 255 255 255 255 255 255 
255 255 255 255 255 255 255 255 255 255 255 255 255 255 255 255 255 255 31 0 103 31 0 103 0 0 67 0 0 67 31 0 103 31 0 103 31 0 103 31 0 103 67 0 0 67 0 0 103 0 0 103 0 0 179 179 179 179 179 179 179 179 179 179 179 179 251 143 127 251 143 127 251 255 255 251 255 255 251 255 255 251 255 255 103 0 0 103 0 0 67 0 0 67 0 0 31 0 103 31 0 103 31 0 103 31 0 103 31 0 103 31 0 103 0 0 67 0 0 67 31 0 103 31 0 103 31 0 103 31 0 103 255 255 255 255 255 255 255 255 255 255 255 255 255 255 255 255 255 255 255 255 255 255 255 255 
255 255 255 255 255 255 255 255 255 255 255 255 31 0 103 31 0 103 31 0 103 31 0 103 0 0 67 0 0 67 31 0 103 31 0 103 31 0 103 31 0 103 67 0 0 67 0 0 103 0 0 103 0 0 251 255 255 251 255 255 179 179 179 179 179 179 251 143 127 251 143 127 251 255 255 251 255 255 179 179 179 179 179 179 103 0 0 103 0 0 67 0 0 67 0 0 31 0 103 31 0 103 31 0 103 31 0 103 31 0 103 31 0 103 0 0 67 0 0 67 31 0 103 31 0 103 31 0 103 31 0 103 255 255 255 255 255 255 255 255 255 255 255 255 255 255 255 255 255 255 255 255 255 255 255 255 
255 255 255 255 255 255 255 255 255 255 255 255 31 0 103 31 0 103 31 0 103 31 0 103 0 0 67 0 0 67 31 0 103 31 0 103 31 0 103 31 0 103 67 0 0 67 0 0 103 0 0 103 0 0 251 255 255 251 255 255 179 179 179 179 179 179 251 143 127 251 143 127 251 255 255 251 255 255 179 179 179 179 179 179 103 0 0 103 0 0 67 0 0 67 0 0 31 0 103 31 0 103 31 0 103 31 0 103 31 0 103 31 0 103 0 0 67 0 0 67 31 0 103 31 0 103 31 0 103 31 0 103 255 255 255 255 255 255 255 255 255 255 255 255 255 255 255 255 255 255 255 255 255 255 255 255 
255 255 255 255 255 255 255 255 255 255 255 255 31 0 103 31 0 103 31 0 103 31 0 103 0 0 67 0 0 67 31 0 103 31 0 103 31 0 103 31 0 103 0 0 67 0 0 67 103 0 0 103 0 0 92 48 4 92 48 4 179 179 179 179 179 179 243 119 91 243 119 91 251 255 255 251 255 255 179 179 179 179 179 179 103 0 0 103 0 0 0 0 67 0 0 67 31 0 103 31 0 103 31 0 103 31 0 103 31 0 103 31 0 103 0 0 67 0 0 67 31 0 103 31 0 103 31 0 103 31 0 103 31 0 103 31 0 103 255 255 255 255 255 255 255 255 255 255 255 255 255 255 255 255 255 255 
255 255 255 255 255 255 255 255 255 255 255 255 31 0 103 31 0 103 31 0 103 31 0 103 0 0 67 0 0 67 31 0 103 31 0 103 31 0 103 31 0 103 0 0 67 0 0 67 103 0 0 103 0 0 92 48 4 92 48 4 179 179 179 179 179 179 243 119 91 243 119 91 251 255 255 251 255 255 179 179 179 179 179 179 103 0 0 103 0 0 0 0 67 0 0 67 31 0 103 31 0 103 31 0 103 31 0 103 31 0 103 31 0 103 0 0 67 0 0 67 31 0 103 31 0 103 31 0 103 31 0 103 31 0 103 31 0 103 255 255 255 255 255 255 255 255 255 255 255 255 255 255 255 255 255 255 
255 255 255 255 255 255 255 255 255 255 255 255 31 0 103 31 0 103 31 0 103 31 0 103 0 0 67 0 0 67 31 0 103 31 0 103 31 0 103 31 0 103 0 0 67 0 0 67 103 0 0 103 0 0 103 0 0 103 0 0 92 48 4 92 48 4 179 179 179 179 179 179 251 255 255 251 255 255 179 179 179 179 179 179 103 0 0 103 0 0 0 0 67 0 0 67 31 0 103 31 0 103 31 0 103 31 0 103 31 0 103 31 0 103 0 0 67 0 0 67 0 0 67 0 0 67 31 0 103 31 0 103 31 0 103 31 0 103 255 255 255 255 255 255 255 255 255 255 255 255 255 255 255 255 255 255 
255 255 255 255 255 255 255 255 255 255 255 255 31 0 103 31 0 103 31 0 103 31 0 103 0 0 67 0 0 67 31 0 103 31 0 103 31 0 103 31 0 103 0 0 67 0 0 67 103 0 0 103 0 0 103 0 0 103 0 0 92 48 4 92 48 4 179 179 179 179 179 179 251 255 255 251 255 255 179 179 179 179 179 179 103 0 0 103 0 0 0 0 67 0 0 67 31 0 103 31 0 103 31 0 103 31 0 103 31 0 103 31 0 103 0 0 67 0 0 67 0 0 67 0 0 67 31 0 103 31 0 103 31 0 103 31 0 103 255 255 255 255 255 255 255 255 255 255 255 255 255 255 255 255 255 255 
255 255 255 255 255 255 0 0 67 0 0 67 0 0 67 0 0 67 31 0 103 31 0 103 0 0 67 0 0 67 31 0 103 31 0 103 31 0 103 31 0 103 0 0 67 0 0 67 103 0 0 103 0 0 179 179 179 179 179 179 103 0 0 103 0 0 92 48 4 92 48 4 92 48 4 92 48 4 179 179 179 179 179 179 179 179 179 179 179 179 103 0 0 103 0 0 0 0 67 0 0 67 31 0 103 31 0 103 0 0 67 0 0 67 0 0 67 0 0 67 0 0 67 0 0 67 31 0 103 31 0 103 31 0 103 31 0 103 255 255 255 255 255 255 255 255 255 255 255 255 255 255 255 255 255 255 
255 255 255 255 255 255 0 0 67 0 0 67 0 0 67 0 0 67 31 0 103 31 0 103 0 0 67 0 0 67 31 0 103 31 0 103 31 0 103 31 0 103 0 0 67 0 0 67 103 0 0 103 0 0 179 179 179 179 179 179 103 0 0 103 0 0 92 48 4 92 48 4 92 48 4 92 48 4 179 179 179 179 179 179 179 179 179 179 179 179 103 0 0 103 0 0 0 0 67 0 0 67 31 0 103 31 0 103 0 0 67 0 0 67 0 0 67 0 0 67 0 0 67 0 0 67 31 0 103 31 0 103 31 0 103 31 0 103 255 255 255 255 255 255 255 255 255 255 255 255 255 255 255 255 255 255 
255 255 255 255 255 255 31 0 103 31 0 103 31 0 103 31 0 103 0 0 67 0 0 67 0 0 67 0 0 67 0 0 67 0 0 67 31 0 103 31 0 103 0 0 67 0 0 67 103 0 0 103 0 0 179 179 179 179 179 179 179 179 179 179 179 179 103 0 0 103 0 0 103 0 0 103 0 0 92 48 4 92 48 4 92 48 4 92 48 4 103 0 0 103 0 0 0 0 67 0 0 67 31 0 103 31 0 103 0 0 67 0 0 67 0 0 67 0 0 67 31 0 103 31 0 103 0 0 67 0 0 67 0 0 67 0 0 67 0 0 67 0 0 67 255 255 255 255 255 255 255 255 255 255 255 255 
255 255 255 255 255 255 31 0 103 31 0 103 31 0 103 31 0 103 0 0 67 0 0 67 0 0 67 0 0 67 0 0 67 0 0 67 31 0 103 31 0 103 0 0 67 0 0 67 103 0 0 103 0 0 179 179 179 179 179 179 179 179 179 179 179 179 103 0 0 103 0 0 103 0 0 103 0 0 92 48 4 92 48 4 92 48 4 92 48 4 103 0 0 103 0 0 0 0 67 0 0 67 31 0 103 31 0 103 0 0 67 0 0 67 0 0 67 0 0 67 31 0 103 31 0 103 0 0 67 0 0 67 0 0 67 0 0 67 0 0 67 0 0 67 255 255 255 255 255 255 255 255 255 255 255 255 
255 255 255 255 255 255 0 0 67 0 0 67 0 0 67 0 0 67 31 0 103 31 0 103 0 0 67 0 0 67 0 0 67 0 0 67 0 0 67 0 0 67 0 0 67 0 0 67 103 0 0 103 0 0 179 179 179 179 179 179 179 179 179 179 179 179 179 179 179 179 179 179 179 179 179 179 179 179 103 0 0 103 0 0 92 48 4 92 48 4 103 0 0 103 0 0 0 0 67 0 0 67 0 0 67 0 0 67 0 0 67 0 0 67 255 255 255 255 255 255 0 0 67 0 0 67 31 0 103 31 0 103 31 0 103 31 0 103 0 0 67 0 0 67 255 255 255 255 255 255 255 255 255 255 255 255 
255 255 255 255 255 255 0 0 67 0 0 67 0 0 67 0 0 67 31 0 103 31 0 103 0 0 67 0 0 67 0 0 67 0 0 67 0 0 67 0 0 67 0 0 67 0 0 67 103 0 0 103 0 0 179 179 179 179 179 179 179 179 179 179 179 179 179 179 179 179 179 179 179 179 179 179 179 179 103 0 0 103 0 0 92 48 4 92 48 4 103 0 0 103 0 0 0 0 67 0 0 67 0 0 67 0 0 67 0 0 67 0 0 67 255 255 255 255 255 255 0 0 67 0 0 67 31 0 103 31 0 103 31 0 103 31 0 103 0 0 67 0 0 67 255 255 255 255 255 255 255 255 255 255 255 255 
0 0 67 0 0 67 31 0 103 31 0 103 31 0 103 31 0 103 0 0 67 0 0 67 255 255 255 255 255 255 0 0 67 0 0 67 0 0 67 0 0 67 0 0 67 0 0 67 139 75 15 139 75 15 179 179 179 179 179 179 139 75 15 139 75 15 139 75 15 139 75 15 187 103 51 187 103 51 187 103 51 187 103 51 179 179 179 179 179 179 187 103 51 187 103 51 0 0 67 0 0 67 0 0 67 0 0 67 0 0 67 0 0 67 255 255 255 255 255 255 31 0 103 31 0 103 31 0 103 31 0 103 31 0 103 31 0 103 0 0 67 0 0 67 255 255 255 255 255 255 255 255 255 255 255 255 
0 0 67 0 0 67 31 0 103 31 0 103 31 0 103 31 0 103 0 0 67 0 0 67 255 255 255 255 255 255 0 0 67 0 0 67 0 0 67 0 0 67 0 0 67 0 0 67 139 75 15 139 75 15 179 179 179 179 179 179 139 75 15 139 75 15 139 75 15 139 75 15 187 103 51 187 103 51 187 103 51 187 103 51 179 179 179 179 179 179 187 103 51 187 103 51 0 0 67 0 0 67 0 0 67 0 0 67 0 0 67 0 0 67 255 255 255 255 255 255 31 0 103 31 0 103 31 0 103 31 0 103 31 0 103 31 0 103 0 0 67 0 0 67 255 255 255 255 255 255 255 255 255 255 255 255 
0 0 67 0 0 67 31 0 103 31 0 103 31 0 103 31 0 103 31 0 103 31 0 103 0 0 67 0 0 67 0 0 67 0 0 67 0 0 67 0 0 67 0 0 67 0 0 67 103 0 0 103 0 0 67 0 0 67 0 0 139 75 15 139 75 15 67 0 0 67 0 0 67 0 0 67 0 0 139 75 15 139 75 15 67 0 0 67 0 0 103 0 0 103 0 0 0 0 67 0 0 67 0 0 67 0 0 67 0 0 67 0 0 67 255 255 255 255 255 255 31 0 103 31 0 103 31 0 103 31 0 103 31 0 103 31 0 103 0 0 67 0 0 67 255 255 255 255 255 255 255 255 255 255 255 255 
0 0 67 0 0 67 31 0 103 31 0 103 31 0 103 31 0 103 31 0 103 31 0 103 0 0 67 0 0 67 0 0 67 0 0 67 0 0 67 0 0 67 0 0 67 0 0 67 103 0 0 103 0 0 67 0 0 67 0 0 139 75 15 139 75 15 67 0 0 67 0 0 67 0 0 67 0 0 139 75 15 139 75 15 67 0 0 67 0 0 103 0 0 103 0 0 0 0 67 0 0 67 0 0 67 0 0 67 0 0 67 0 0 67 255 255 255 255 255 255 31 0 103 31 0 103 31 0 103 31 0 103 31 0 103 31 0 103 0 0 67 0 0 67 255 255 255 255 255 255 255 255 255 255 255 255 
0 0 67 0 0 67 31 0 103 31 0 103 31 0 103 31 0 103 31 0 103 31 0 103 0 0 67 0 0 67 0 0 67 0 0 67 0 0 67 0 0 67 0 0 67 0 0 67 103 0 0 103 0 0 67 0 0 67 0 0 187 103 51 187 103 51 187 103 51 187 103 51 67 0 0 67 0 0 139 75 15 139 75 15 67 0 0 67 0 0 103 0 0 103 0 0 0 0 67 0 0 67 0 0 67 0 0 67 0 0 67 0 0 67 0 0 67 0 0 67 31 0 103 31 0 103 31 0 103 31 0 103 0 0 67 0 0 67 0 0 67 0 0 67 255 255 255 255 255 255 255 255 255 255 255 255 
0 0 67 0 0 67 31 0 103 31 0 103 31 0 103 31 0 103 31 0 103 31 0 103 0 0 67 0 0 67 0 0 67 0 0 67 0 0 67 0 0 67 0 0 67 0 0 67 103 0 0 103 0 0 67 0 0 67 0 0 187 103 51 187 103 51 187 103 51 187 103 51 67 0 0 67 0 0 139 75 15 139 75 15 67 0 0 67 0 0 103 0 0 103 0 0 0 0 67 0 0 67 0 0 67 0 0 67 0 0 67 0 0 67 0 0 67 0 0 67 31 0 103 31 0 103 31 0 103 31 0 103 0 0 67 0 0 67 0 0 67 0 0 67 255 255 255 255 255 255 255 255 255 255 255 255 
92 48 4 92 48 4 92 48 4 92 48 4 31 0 103 31 0 103 31 0 103 31 0 103 0 0 67 0 0 67 0 0 67 0 0 67 0 0 67 0 0 67 0 0 67 0 0 67 139 75 15 139 75 15 67 0 0 67 0 0 139 75 15 139 75 15 67 0 0 67 0 0 67 0 0 67 0 0 139 75 15 139 75 15 67 0 0 67 0 0 187 103 51 187 103 51 0 0 67 0 0 67 0 0 67 0 0 67 0 0 67 0 0 67 0 0 67 0 0 67 31 0 103 31 0 103 31 0 103 31 0 103 92 48 4 92 48 4 92 48 4 92 48 4 255 255 255 255 255 255 255 255 255 255 255 255 
92 48 4 92 48 4 92 48 4 92 48 4 31 0 103 31 0 103 31 0 103 31 0 103 0 0 67 0 0 67 0 0 67 0 0 67 0 0 67 0 0 67 0 0 67 0 0 67 139 75 15 139 75 15 67 0 0 67 0 0 139 75 15 139 75 15 67 0 0 67 0 0 67 0 0 67 0 0 139 75 15 139 75 15 67 0 0 67 0 0 187 103 51 187 103 51 0 0 67 0 0 67 0 0 67 0 0 67 0 0 67 0 0 67 0 0 67 0 0 67 31 0 103 31 0 103 31 0 103 31 0 103 92 48 4 92 48 4 92 48 4 92 48 4 255 255 255 255 255 255 255 255 255 255 255 255 
67 0 0 67 0 0 67 0 0 67 0 0 92 48 4 92 48 4 92 48 4 92 48 4 31 0 103 31 0 103 0 0 67 0 0 67 0 0 67 0 0 67 0 0 67 0 0 67 103 0 0 103 0 0 0 0 0 0 0 0 139 75 15 139 75 15 139 75 15 139 75 15 139 75 15 139 75 15 139 75 15 139 75 15 0 0 0 0 0 0 103 0 0 103 0 0 0 0 67 0 0 67 0 0 67 0 0 67 0 0 67 0 0 67 0 0 67 0 0 67 92 48 4 92 48 4 92 48 4 92 48 4 67 0 0 67 0 0 67 0 0 67 0 0 255 255 255 255 255 255 255 255 255 255 255 255 
67 0 0 67 0 0 67 0 0 67 0 0 92 48 4 92 48 4 92 48 4 92 48 4 31 0 103 31 0 103 0 0 67 0 0 67 0 0 67 0 0 67 0 0 67 0 0 67 103 0 0 103 0 0 0 0 0 0 0 0 139 75 15 139 75 15 139 75 15 139 75 15 139 75 15 139 75 15 139 75 15 139 75 15 0 0 0 0 0 0 103 0 0 103 0 0 0 0 67 0 0 67 0 0 67 0 0 67 0 0 67 0 0 67 0 0 67 0 0 67 92 48 4 92 48 4 92 48 4 92 48 4 67 0 0 67 0 0 67 0 0 67 0 0 255 255 255 255 255 255 255 255 255 255 255 255 
255 255 255 255 255 255 67 0 0 67 0 0 67 0 0 67 0 0 67 0 0 67 0 0 31 0 103 31 0 103 0 0 67 0 0 67 0 0 67 0 0 67 0 0 67 0 0 67 103 0 0 103 0 0 0 0 0 0 0 0 0 0 0 0 0 0 0 0 0 0 0 0 0 0 0 0 0 0 0 0 0 0 0 0 0 0 0 0 0 0 103 0 0 103 0 0 0 0 67 0 0 67 0 0 67 0 0 67 0 0 67 0 0 67 31 0 103 31 0 103 67 0 0 67 0 0 67 0 0 67 0 0 67 0 0 67 0 0 255 255 255 255 255 255 255 255 255 255 255 255 255 255 255 255 255 255 
255 255 255 255 255 255 67 0 0 67 0 0 67 0 0 67 0 0 67 0 0 67 0 0 31 0 103 31 0 103 0 0 67 0 0 67 0 0 67 0 0 67 0 0 67 0 0 67 103 0 0 103 0 0 0 0 0 0 0 0 0 0 0 0 0 0 0 0 0 0 0 0 0 0 0 0 0 0 0 0 0 0 0 0 0 0 0 0 0 0 103 0 0 103 0 0 0 0 67 0 0 67 0 0 67 0 0 67 0 0 67 0 0 67 31 0 103 31 0 103 67 0 0 67 0 0 67 0 0 67 0 0 67 0 0 67 0 0 255 255 255 255 255 255 255 255 255 255 255 255 255 255 255 255 255 255 
255 255 255 255 255 255 243 119 91 243 119 91 243 119 91 243 119 91 199 115 103 199 115 103 31 0 103 31 0 103 0 0 67 0 0 67 0 0 67 0 0 67 0 0 67 0 0 67 139 75 15 139 75 15 0 0 0 0 0 0 0 0 0 0 0 0 0 0 0 0 0 0 0 0 0 0 0 0 0 0 0 0 0 0 0 0 0 0 0 0 139 75 15 139 75 15 0 0 67 0 0 67 0 0 67 0 0 67 0 0 67 0 0 67 31 0 103 31 0 103 199 115 103 199 115 103 243 119 91 243 119 91 243 119 91 243 119 91 255 255 255 255 255 255 255 255 255 255 255 255 255 255 255 255 255 255 
255 255 255 255 255 255 243 119 91 243 119 91 243 119 91 243 119 91 199 115 103 199 115 103 31 0 103 31 0 103 0 0 67 0 0 67 0 0 67 0 0 67 0 0 67 0 0 67 139 75 15 139 75 15 0 0 0 0 0 0 0 0 0 0 0 0 0 0 0 0 0 0 0 0 0 0 0 0 0 0 0 0 0 0 0 0 0 0 0 0 139 75 15 139 75 15 0 0 67 0 0 67 0 0 67 0 0 67 0 0 67 0 0 67 31 0 103 31 0 103 199 115 103 199 115 103 243 119 91 243 119 91 243 119 91 243 119 91 255 255 255 255 255 255 255 255 255 255 255 255 255 255 255 255 255 255 
255 255 255 255 255 255 199 115 103 199 115 103 243 119 91 243 119 91 243 119 91 243 119 91 199 115 103 199 115 103 31 0 103 31 0 103 0 0 67 0 0 67 0 0 67 0 0 67 103 0 0 103 0 0 0 0 0 0 0 0 0 0 0 0 0 0 0 0 0 0 0 0 0 0 0 0 0 0 0 0 0 0 0 0 0 0 0 0 0 0 0 0 0 0 0 0 103 0 0 103 0 0 0 0 67 0 0 67 0 0 67 0 0 67 199 115 103 199 115 103 243 119 91 243 119 91 243 119 91 243 119 91 199 115 103 199 115 103 255 255 255 255 255 255 255 255 255 255 255 255 255 255 255 255 255 255 
255 255 255 255 255 255 199 115 103 199 115 103 243 119 91 243 119 91 243 119 91 243 119 91 199 115 103 199 115 103 31 0 103 31 0 103 0 0 67 0 0 67 0 0 67 0 0 67 103 0 0 103 0 0 0 0 0 0 0 0 0 0 0 0 0 0 0 0 0 0 0 0 0 0 0 0 0 0 0 0 0 0 0 0 0 0 0 0 0 0 0 0 0 0 0 0 103 0 0 103 0 0 0 0 67 0 0 67 0 0 67 0 0 67 199 115 103 199 115 103 243 119 91 243 119 91 243 119 91 243 119 91 199 115 103 199 115 103 255 255 255 255 255 255 255 255 255 255 255 255 255 255 255 255 255 255 
255 255 255 255 255 255 255 255 255 255 255 255 243 119 91 243 119 91 199 115 103 199 115 103 31 0 103 31 0 103 31 0 103 31 0 103 0 0 0 0 0 0 0 0 67 0 0 67 103 0 0 103 0 0 0 0 0 0 0 0 0 0 0 0 0 0 0 0 0 0 0 0 0 0 0 0 0 0 0 0 0 0 0 0 0 0 0 0 0 0 0 0 0 0 0 0 103 0 0 103 0 0 0 0 67 0 0 67 0 0 67 0 0 67 31 0 103 31 0 103 199 115 103 199 115 103 243 119 91 243 119 91 199 115 103 199 115 103 255 255 255 255 255 255 255 255 255 255 255 255 255 255 255 255 255 255 
255 255 255 255 255 255 255 255 255 255 255 255 243 119 91 243 119 91 199 115 103 199 115 103 31 0 103 31 0 103 31 0 103 31 0 103 0 0 0 0 0 0 0 0 67 0 0 67 103 0 0 103 0 0 0 0 0 0 0 0 0 0 0 0 0 0 0 0 0 0 0 0 0 0 0 0 0 0 0 0 0 0 0 0 0 0 0 0 0 0 0 0 0 0 0 0 103 0 0 103 0 0 0 0 67 0 0 67 0 0 67 0 0 67 31 0 103 31 0 103 199 115 103 199 115 103 243 119 91 243 119 91 199 115 103 199 115 103 255 255 255 255 255 255 255 255 255 255 255 255 255 255 255 255 255 255 
255 255 255 255 255 255 255 255 255 255 255 255 255 255 255 255 255 255 199 115 103 199 115 103 31 0 103 31 0 103 31 0 103 31 0 103 0 0 67 0 0 67 0 0 67 0 0 67 139 75 15 139 75 15 0 0 0 0 0 0 0 0 0 0 0 0 0 0 0 0 0 0 0 0 0 0 0 0 0 0 0 0 0 0 0 0 0 0 0 0 0 0 0 0 0 0 139 75 15 139 75 15 0 0 67 0 0 67 0 0 67 0 0 67 31 0 103 31 0 103 199 115 103 199 115 103 199 115 103 199 115 103 255 255 255 255 255 255 255 255 255 255 255 255 255 255 255 255 255 255 255 255 255 255 255 255 
255 255 255 255 255 255 255 255 255 255 255 255 255 255 255 255 255 255 199 115 103 199 115 103 31 0 103 31 0 103 31 0 103 31 0 103 0 0 67 0 0 67 0 0 67 0 0 67 139 75 15 139 75 15 0 0 0 0 0 0 0 0 0 0 0 0 0 0 0 0 0 0 0 0 0 0 0 0 0 0 0 0 0 0 0 0 0 0 0 0 0 0 0 0 0 0 139 75 15 139 75 15 0 0 67 0 0 67 0 0 67 0 0 67 31 0 103 31 0 103 199 115 103 199 115 103 199 115 103 199 115 103 255 255 255 255 255 255 255 255 255 255 255 255 255 255 255 255 255 255 255 255 255 255 255 255 
255 255 255 255 255 255 255 255 255 255 255 255 255 255 255 255 255 255 255 255 255 255 255 255 31 0 103 31 0 103 31 0 103 31 0 103 0 0 67 0 0 67 0 0 67 0 0 67 103 0 0 103 0 0 0 0 0 0 0 0 0 0 0 0 0 0 0 0 0 0 0 0 0 0 0 0 0 0 0 0 0 0 0 0 0 0 0 0 0 0 0 0 0 0 0 0 103 0 0 103 0 0 0 0 67 0 0 67 0 0 67 0 0 67 0 0 0 0 0 0 31 0 103 31 0 103 255 255 255 255 255 255 255 255 255 255 255 255 255 255 255 255 255 255 255 255 255 255 255 255 255 255 255 255 255 255 
255 255 255 255 255 255 255 255 255 255 255 255 255 255 255 255 255 255 255 255 255 255 255 255 31 0 103 31 0 103 31 0 103 31 0 103 0 0 67 0 0 67 0 0 67 0 0 67 103 0 0 103 0 0 0 0 0 0 0 0 0 0 0 0 0 0 0 0 0 0 0 0 0 0 0 0 0 0 0 0 0 0 0 0 0 0 0 0 0 0 0 0 0 0 0 0 103 0 0 103 0 0 0 0 67 0 0 67 0 0 67 0 0 67 0 0 0 0 0 0 31 0 103 31 0 103 255 255 255 255 255 255 255 255 255 255 255 255 255 255 255 255 255 255 255 255 255 255 255 255 255 255 255 255 255 255 
255 255 255 255 255 255 255 255 255 255 255 255 255 255 255 255 255 255 255 255 255 255 255 255 31 0 103 31 0 103 31 0 103 31 0 103 0 0 0 0 0 0 0 0 67 0 0 67 103 0 0 103 0 0 0 0 0 0 0 0 0 0 0 0 0 0 0 0 0 0 0 0 0 0 0 0 0 0 0 0 0 0 0 0 0 0 0 0 0 0 0 0 0 0 0 0 103 0 0 103 0 0 0 0 67 0 0 67 0 0 67 0 0 67 0 0 0 0 0 0 31 0 103 31 0 103 255 255 255 255 255 255 255 255 255 255 255 255 255 255 255 255 255 255 255 255 255 255 255 255 255 255 255 255 255 255 
255 255 255 255 255 255 255 255 255 255 255 255 255 255 255 255 255 255 255 255 255 255 255 255 31 0 103 31 0 103 31 0 103 31 0 103 0 0 0 0 0 0 0 0 67 0 0 67 103 0 0 103 0 0 0 0 0 0 0 0 0 0 0 0 0 0 0 0 0 0 0 0 0 0 0 0 0 0 0 0 0 0 0 0 0 0 0 0 0 0 0 0 0 0 0 0 103 0 0 103 0 0 0 0 67 0 0 67 0 0 67 0 0 67 0 0 0 0 0 0 31 0 103 31 0 103 255 255 255 255 255 255 255 255 255 255 255 255 255 255 255 255 255 255 255 255 255 255 255 255 255 255 255 255 255 255 
255 255 255 255 255 255 255 255 255 255 255 255 255 255 255 255 255 255 255 255 255 255 255 255 31 0 103 31 0 103 31 0 103 31 0 103 0 0 0 0 0 0 0 0 67 0 0 67 139 75 15 139 75 15 0 0 0 0 0 0 0 0 0 0 0 0 0 0 0 0 0 0 0 0 0 0 0 0 255 255 255 255 255 255 0 0 0 0 0 0 0 0 0 0 0 0 0 0 0 0 0 0 139 75 15 139 75 15 0 0 67 0 0 67 0 0 0 0 0 0 31 0 103 31 0 103 255 255 255 255 255 255 255 255 255 255 255 255 255 255 255 255 255 255 255 255 255 255 255 255 255 255 255 255 255 255 
255 255 255 255 255 255 255 255 255 255 255 255 255 255 255 255 255 255 255 255 255 255 255 255 31 0 103 31 0 103 31 0 103 31 0 103 0 0 0 0 0 0 0 0 67 0 0 67 139 75 15 139 75 15 0 0 0 0 0 0 0 0 0 0 0 0 0 0 0 0 0 0 0 0 0 0 0 0 255 255 255 255 255 255 0 0 0 0 0 0 0 0 0 0 0 0 0 0 0 0 0 0 139 75 15 139 75 15 0 0 67 0 0 67 0 0 0 0 0 0 31 0 103 31 0 103 255 255 255 255 255 255 255 255 255 255 255 255 255 255 255 255 255 255 255 255 255 255 255 255 255 255 255 255 255 255 
255 255 255 255 255 255 255 255 255 255 255 255 255 255 255 255 255 255 255 255 255 255 255 255 31 0 103 31 0 103 31 0 103 31 0 103 0 0 0 0 0 0 0 0 67 0 0 67 103 0 0 103 0 0 0 0 0 0 0 0 0 0 0 0 0 0 0 0 0 0 0 0 0 0 0 0 0 0 255 255 255 255 255 255 0 0 0 0 0 0 0 0 0 0 0 0 0 0 0 0 0 0 103 0 0 103 0 0 139 75 15 139 75 15 0 0 0 0 0 0 139 75 15 139 75 15 255 255 255 255 255 255 255 255 255 255 255 255 255 255 255 255 255 255 255 255 255 255 255 255 255 255 255 255 255 255 
255 255 255 255 255 255 255 255 255 255 255 255 255 255 255 255 255 255 255 255 255 255 255 255 31 0 103 31 0 103 31 0 103 31 0 103 0 0 0 0 0 0 0 0 67 0 0 67 103 0 0 103 0 0 0 0 0 0 0 0 0 0 0 0 0 0 0 0 0 0 0 0 0 0 0 0 0 0 255 255 255 255 255 255 0 0 0 0 0 0 0 0 0 0 0 0 0 0 0 0 0 0 103 0 0 103 0 0 139 75 15 139 75 15 0 0 0 0 0 0 139 75 15 139 75 15 255 255 255 255 255 255 255 255 255 255 255 255 255 255 255 255 255 255 255 255 255 255 255 255 255 255 255 255 255 255 
255 255 255 255 255 255 255 255 255 255 255 255 255 255 255 255 255 255 255 255 255 255 255 255 139 75 15 139 75 15 139 75 15 139 75 15 0 0 0 0 0 0 139 75 15 139 75 15 103 0 0 103 0 0 0 0 0 0 0 0 0 0 0 0 0 0 0 0 0 0 0 0 0 0 0 0 0 0 255 255 255 255 255 255 0 0 0 0 0 0 0 0 0 0 0 0 0 0 0 0 0 0 103 0 0 103 0 0 51 51 51 51 51 51 0 0 0 0 0 0 51 51 51 51 51 51 255 255 255 255 255 255 255 255 255 255 255 255 255 255 255 255 255 255 255 255 255 255 255 255 255 255 255 255 255 255 
255 255 255 255 255 255 255 255 255 255 255 255 255 255 255 255 255 255 255 255 255 255 255 255 139 75 15 139 75 15 139 75 15 139 75 15 0 0 0 0 0 0 139 75 15 139 75 15 103 0 0 103 0 0 0 0 0 0 0 0 0 0 0 0 0 0 0 0 0 0 0 0 0 0 0 0 0 0 255 255 255 255 255 255 0 0 0 0 0 0 0 0 0 0 0 0 0 0 0 0 0 0 103 0 0 103 0 0 51 51 51 51 51 51 0 0 0 0 0 0 51 51 51 51 51 51 255 255 255 255 255 255 255 255 255 255 255 255 255 255 255 255 255 255 255 255 255 255 255 255 255 255 255 255 255 255 
255 255 255 255 255 255 255 255 255 255 255 255 255 255 255 255 255 255 255 255 255 255 255 255 51 51 51 51 51 51 51 51 51 51 51 51 0 0 0 0 0 0 103 0 0 103 0 0 0 0 0 0 0 0 0 0 0 0 0 0 0 0 0 0 0 0 0 0 0 0 0 0 0 0 0 0 0 0 255 255 255 255 255 255 0 0 0 0 0 0 0 0 0 0 0 0 0 0 0 0 0 0 0 0 0 0 0 0 0 0 0 0 0 0 0 0 0 0 0 0 0 0 0 0 0 0 255 255 255 255 255 255 255 255 255 255 255 255 255 255 255 255 255 255 255 255 255 255 255 255 255 255 255 255 255 255 
255 255 255 255 255 255 255 255 255 255 255 255 255 255 255 255 255 255 255 255 255 255 255 255 51 51 51 51 51 51 51 51 51 51 51 51 0 0 0 0 0 0 103 0 0 103 0 0 0 0 0 0 0 0 0 0 0 0 0 0 0 0 0 0 0 0 0 0 0 0 0 0 0 0 0 0 0 0 255 255 255 255 255 255 0 0 0 0 0 0 0 0 0 0 0 0 0 0 0 0 0 0 0 0 0 0 0 0 0 0 0 0 0 0 0 0 0 0 0 0 0 0 0 0 0 0 255 255 255 255 255 255 255 255 255 255 255 255 255 255 255 255 255 255 255 255 255 255 255 255 255 255 255 255 255 255 
255 255 255 255 255 255 255 255 255 255 255 255 255 255 255 255 255 255 255 255 255 255 255 255 255 255 255 255 255 255 255 255 255 255 255 255 0 0 0 0 0 0 0 0 0 0 0 0 0 0 0 0 0 0 0 0 0 0 0 0 0 0 0 0 0 0 0 0 0 0 0 0 0 0 0 0 0 0 255 255 255 255 255 255 255 255 255 255 255 255 0 0 0 0 0 0 0 0 0 0 0 0 0 0 0 0 0 0 0 0 0 0 0 0 0 0 0 0 0 0 0 0 0 0 0 0 255 255 255 255 255 255 255 255 255 255 255 255 255 255 255 255 255 255 255 255 255 255 255 255 255 255 255 255 255 255 
255 255 255 255 255 255 255 255 255 255 255 255 255 255 255 255 255 255 255 255 255 255 255 255 255 255 255 255 255 255 255 255 255 255 255 255 0 0 0 0 0 0 0 0 0 0 0 0 0 0 0 0 0 0 0 0 0 0 0 0 0 0 0 0 0 0 0 0 0 0 0 0 0 0 0 0 0 0 255 255 255 255 255 255 255 255 255 255 255 255 0 0 0 0 0 0 0 0 0 0 0 0 0 0 0 0 0 0 0 0 0 0 0 0 0 0 0 0 0 0 0 0 0 0 0 0 255 255 255 255 255 255 255 255 255 255 255 255 255 255 255 255 255 255 255 255 255 255 255 255 255 255 255 255 255 255 
255 255 255 255 255 255 255 255 255 255 255 255 255 255 255 255 255 255 255 255 255 255 255 255 255 255 255 255 255 255 255 255 255 255 255 255 67 0 0 67 0 0 67 0 0 67 0 0 67 0 0 67 0 0 67 0 0 67 0 0 67 0 0 67 0 0 67 0 0 67 0 0 255 255 255 255 255 255 255 255 255 255 255 255 255 255 255 255 255 255 255 255 255 255 255 255 67 0 0 67 0 0 67 0 0 67 0 0 67 0 0 67 0 0 67 0 0 67 0 0 67 0 0 67 0 0 67 0 0 67 0 0 255 255 255 255 255 255 255 255 255 255 255 255 255 255 255 255 255 255 255 255 255 255 255 255 
255 255 255 255 255 255 255 255 255 255 255 255 255 255 255 255 255 255 255 255 255 255 255 255 255 255 255 255 255 255 255 255 255 255 255 255 67 0 0 67 0 0 67 0 0 67 0 0 67 0 0 67 0 0 67 0 0 67 0 0 67 0 0 67 0 0 67 0 0 67 0 0 255 255 255 255 255 255 255 255 255 255 255 255 255 255 255 255 255 255 255 255 255 255 255 255 67 0 0 67 0 0 67 0 0 67 0 0 67 0 0 67 0 0 67 0 0 67 0 0 67 0 0 67 0 0 67 0 0 67 0 0 255 255 255 255 255 255 255 255 255 255 255 255 255 255 255 255 255 255 255 255 255 255 255 255 
255 255 255 255 255 255 255 255 255 255 255 255 255 255 255 255 255 255 255 255 255 255 255 255 255 255 255 255 255 255 255 255 255 255 255 255 67 0 0 67 0 0 67 0 0 67 0 0 67 0 0 67 0 0 67 0 0 67 0 0 67 0 0 67 0 0 67 0 0 67 0 0 67 0 0 67 0 0 255 255 255 255 255 255 255 255 255 255 255 255 255 255 255 255 255 255 67 0 0 67 0 0 67 0 0 67 0 0 67 0 0 67 0 0 67 0 0 67 0 0 67 0 0 67 0 0 67 0 0 67 0 0 255 255 255 255 255 255 255 255 255 255 255 255 255 255 255 255 255 255 255 255 255 255 255 255 
255 255 255 255 255 255 255 255 255 255 255 255 255 255 255 255 255 255 255 255 255 255 255 255 255 255 255 255 255 255 255 255 255 255 255 255 67 0 0 67 0 0 67 0 0 67 0 0 67 0 0 67 0 0 67 0 0 67 0 0 67 0 0 67 0 0 67 0 0 67 0 0 67 0 0 67 0 0 255 255 255 255 255 255 255 255 255 255 255 255 255 255 255 255 255 255 67 0 0 67 0 0 67 0 0 67 0 0 67 0 0 67 0 0 67 0 0 67 0 0 67 0 0 67 0 0 67 0 0 67 0 0 255 255 255 255 255 255 255 255 255 255 255 255 255 255 255 255 255 255 255 255 255 255 255 255 
255 255 255 255 255 255 255 255 255 255 255 255 255 255 255 255 255 255 255 255 255 255 255 255 255 255 255 255 255 255 103 0 0 103 0 0 103 0 0 103 0 0 103 0 0 103 0 0 103 0 0 103 0 0 103 0 0 103 0 0 103 0 0 103 0 0 67 0 0 67 0 0 67 0 0 67 0 0 255 255 255 255 255 255 255 255 255 255 255 255 103 0 0 103 0 0 103 0 0 103 0 0 103 0 0 103 0 0 103 0 0 103 0 0 103 0 0 103 0 0 103 0 0 103 0 0 103 0 0 103 0 0 103 0 0 103 0 0 255 255 255 255 255 255 255 255 255 255 255 255 255 255 255 255 255 255 
255 255 255 255 255 255 255 255 255 255 255 255 255 255 255 255 255 255 255 255 255 255 255 255 255 255 255 255 255 255 103 0 0 103 0 0 103 0 0 103 0 0 103 0 0 103 0 0 103 0 0 103 0 0 103 0 0 103 0 0 103 0 0 103 0 0 67 0 0 67 0 0 67 0 0 67 0 0 255 255 255 255 255 255 255 255 255 255 255 255 103 0 0 103 0 0 103 0 0 103 0 0 103 0 0 103 0 0 103 0 0 103 0 0 103 0 0 103 0 0 103 0 0 103 0 0 103 0 0 103 0 0 103 0 0 103 0 0 255 255 255 255 255 255 255 255 255 255 255 255 255 255 255 255 255 255 
255 255 255 255 255 255 255 255 255 255 255 255 255 255 255 255 255 255 255 255 255 255 255 255 255 255 255 255 255 255 103 0 0 103 0 0 103 0 0 103 0 0 103 0 0 103 0 0 103 0 0 103 0 0 103 0 0 103 0 0 103 0 0 103 0 0 67 0 0 67 0 0 67 0 0 67 0 0 255 255 255 255 255 255 255 255 255 255 255 255 103 0 0 103 0 0 103 0 0 103 0 0 103 0 0 103 0 0 103 0 0 103 0 0 103 0 0 103 0 0 103 0 0 103 0 0 103 0 0 103 0 0 103 0 0 103 0 0 255 255 255 255 255 255 255 255 255 255 255 255 255 255 255 255 255 255 
255 255 255 255 255 255 255 255 255 255 255 255 255 255 255 255 255 255 255 255 255 255 255 255 255 255 255 255 255 255 103 0 0 103 0 0 103 0 0 103 0 0 103 0 0 103 0 0 103 0 0 103 0 0 103 0 0 103 0 0 103 0 0 103 0 0 67 0 0 67 0 0 67 0 0 67 0 0 255 255 255 255 255 255 255 255 255 255 255 255 103 0 0 103 0 0 103 0 0 103 0 0 103 0 0 103 0 0 103 0 0 103 0 0 103 0 0 103 0 0 103 0 0 103 0 0 103 0 0 103 0 0 103 0 0 103 0 0 255 255 255 255 255 255 255 255 255 255 255 255 255 255 255 255 255 255 
255 255 255 255 255 255 255 255 255 255 255 255 255 255 255 255 255 255 255 255 255 255 255 255 255 255 255 255 255 255 103 0 0 103 0 0 103 0 0 103 0 0 103 0 0 103 0 0 103 0 0 103 0 0 103 0 0 103 0 0 103 0 0 103 0 0 67 0 0 67 0 0 67 0 0 67 0 0 255 255 255 255 255 255 255 255 255 255 255 255 103 0 0 103 0 0 103 0 0 103 0 0 103 0 0 103 0 0 103 0 0 103 0 0 103 0 0 103 0 0 103 0 0 103 0 0 103 0 0 103 0 0 103 0 0 103 0 0 255 255 255 255 255 255 255 255 255 255 255 255 255 255 255 255 255 255 
255 255 255 255 255 255 255 255 255 255 255 255 255 255 255 255 255 255 255 255 255 255 255 255 255 255 255 255 255 255 103 0 0 103 0 0 103 0 0 103 0 0 103 0 0 103 0 0 103 0 0 103 0 0 103 0 0 103 0 0 103 0 0 103 0 0 67 0 0 67 0 0 67 0 0 67 0 0 255 255 255 255 255 255 255 255 255 255 255 255 103 0 0 103 0 0 103 0 0 103 0 0 103 0 0 103 0 0 103 0 0 103 0 0 103 0 0 103 0 0 103 0 0 103 0 0 103 0 0 103 0 0 103 0 0 103 0 0 255 255 255 255 255 255 255 255 255 255 255 255 255 255 255 255 255 255 
255 255 255 255 255 255 255 255 255 255 255 255 255 255 255 255 255 255 255 255 255 255 255 255 255 255 255 255 255 255 67 0 0 67 0 0 67 0 0 67 0 0 67 0 0 67 0 0 67 0 0 67 0 0 67 0 0 67 0 0 67 0 0 67 0 0 67 0 0 67 0 0 67 0 0 67 0 0 255 255 255 255 255 255 255 255 255 255 255 255 255 255 255 255 255 255 67 0 0 67 0 0 67 0 0 67 0 0 67 0 0 67 0 0 67 0 0 67 0 0 67 0 0 67 0 0 67 0 0 67 0 0 67 0 0 67 0 0 255 255 255 255 255 255 255 255 255 255 255 255 255 255 255 255 255 255 
255 255 255 255 255 255 255 255 255 255 255 255 255 255 255 255 255 255 255 255 255 255 255 255 255 255 255 255 255 255 67 0 0 67 0 0 67 0 0 67 0 0 67 0 0 67 0 0 67 0 0 67 0 0 67 0 0 67 0 0 67 0 0 67 0 0 67 0 0 67 0 0 67 0 0 67 0 0 255 255 255 255 255 255 255 255 255 255 255 255 255 255 255 255 255 255 67 0 0 67 0 0 67 0 0 67 0 0 67 0 0 67 0 0 67 0 0 67 0 0 67 0 0 67 0 0 67 0 0 67 0 0 67 0 0 67 0 0 255 255 255 255 255 255 255 255 255 255 255 255 255 255 255 255 255 255 
255 255 255 255 255 255 255 255 255 255 255 255 255 255 255 255 255 255 255 255 255 255 255 255 255 255 255 255 255 255 255 255 255 255 255 255 255 255 255 255 255 255 67 0 0 67 0 0 67 0 0 67 0 0 67 0 0 67 0 0 67 0 0 67 0 0 255 255 255 255 255 255 255 255 255 255 255 255 255 255 255 255 255 255 255 255 255 255 255 255 255 255 255 255 255 255 255 255 255 255 255 255 255 255 255 255 255 255 67 0 0 67 0 0 67 0 0 67 0 0 67 0 0 67 0 0 67 0 0 67 0 0 255 255 255 255 255 255 255 255 255 255 255 255 255 255 255 255 255 255 255 255 255 255 255 255 
255 255 255 255 255 255 255 255 255 255 255 255 255 255 255 255 255 255 255 255 255 255 255 255 255 255 255 255 255 255 255 255 255 255 255 255 255 255 255 255 255 255 67 0 0 67 0 0 67 0 0 67 0 0 67 0 0 67 0 0 67 0 0 67 0 0 255 255 255 255 255 255 255 255 255 255 255 255 255 255 255 255 255 255 255 255 255 255 255 255 255 255 255 255 255 255 255 255 255 255 255 255 255 255 255 255 255 255 67 0 0 67 0 0 67 0 0 67 0 0 67 0 0 67 0 0 67 0 0 67 0 0 255 255 255 255 255 255 255 255 255 255 255 255 255 255 255 255 255 255 255 255 255 255 255 255 
255 255 255 255 255 255 255 255 255 255 255 255 255 255 255 255 255 255 255 255 255 255 255 255 255 255 255 255 255 255 255 255 255 255 255 255 255 255 255 255 255 255 67 0 0 67 0 0 103 0 0 103 0 0 103 0 0 103 0 0 103 0 0 103 0 0 67 0 0 67 0 0 255 255 255 255 255 255 255 255 255 255 255 255 255 255 255 255 255 255 255 255 255 255 255 255 255 255 255 255 255 255 255 255 255 255 255 255 67 0 0 67 0 0 103 0 0 103 0 0 103 0 0 103 0 0 103 0 0 103 0 0 67 0 0 67 0 0 255 255 255 255 255 255 255 255 255 255 255 255 255 255 255 255 255 255 
255 255 255 255 255 255 255 255 255 255 255 255 255 255 255 255 255 255 255 255 255 255 255 255 255 255 255 255 255 255 255 255 255 255 255 255 255 255 255 255 255 255 67 0 0 67 0 0 103 0 0 103 0 0 103 0 0 103 0 0 103 0 0 103 0 0 67 0 0 67 0 0 255 255 255 255 255 255 255 255 255 255 255 255 255 255 255 255 255 255 255 255 255 255 255 255 255 255 255 255 255 255 255 255 255 255 255 255 67 0 0 67 0 0 103 0 0 103 0 0 103 0 0 103 0 0 103 0 0 103 0 0 67 0 0 67 0 0 255 255 255 255 255 255 255 255 255 255 255 255 255 255 255 255 255 255 
255 255 255 255 255 255 255 255 255 255 255 255 255 255 255 255 255 255 255 255 255 255 255 255 255 255 255 255 255 255 67 0 0 67 0 0 67 0 0 67 0 0 103 0 0 103 0 0 103 0 0 103 0 0 103 0 0 103 0 0 103 0 0 103 0 0 103 0 0 103 0 0 255 255 255 255 255 255 255 255 255 255 255 255 255 255 255 255 255 255 255 255 255 255 255 255 255 255 255 255 255 255 255 255 255 255 255 255 103 0 0 103 0 0 103 0 0 103 0 0 103 0 0 103 0 0 103 0 0 103 0 0 103 0 0 103 0 0 67 0 0 67 0 0 67 0 0 67 0 0 255 255 255 255 255 255 
255 255 255 255 255 255 255 255 255 255 255 255 255 255 255 255 255 255 255 255 255 255 255 255 255 255 255 255 255 255 67 0 0 67 0 0 67 0 0 67 0 0 103 0 0 103 0 0 103 0 0 103 0 0 103 0 0 103 0 0 103 0 0 103 0 0 103 0 0 103 0 0 255 255 255 255 255 255 255 255 255 255 255 255 255 255 255 255 255 255 255 255 255 255 255 255 255 255 255 255 255 255 255 255 255 255 255 255 103 0 0 103 0 0 103 0 0 103 0 0 103 0 0 103 0 0 103 0 0 103 0 0 103 0 0 103 0 0 67 0 0 67 0 0 67 0 0 67 0 0 255 255 255 255 255 255 
255 255 255 255 255 255 255 255 255 255 255 255 255 255 255 255 255 255 255 255 255 255 255 255 67 0 0 67 0 0 103 0 0 103 0 0 103 0 0 103 0 0 103 0 0 103 0 0 103 0 0 103 0 0 103 0 0 103 0 0 103 0 0 103 0 0 103 0 0 103 0 0 255 255 255 255 255 255 255 255 255 255 255 255 255 255 255 255 255 255 255 255 255 255 255 255 255 255 255 255 255 255 255 255 255 255 255 255 103 0 0 103 0 0 103 0 0 103 0 0 103 0 0 103 0 0 103 0 0 103 0 0 103 0 0 103 0 0 103 0 0 103 0 0 103 0 0 103 0 0 67 0 0 67 0 0 
255 255 255 255 255 255 255 255 255 255 255 255 255 255 255 255 255 255 255 255 255 255 255 255 67 0 0 67 0 0 103 0 0 103 0 0 103 0 0 103 0 0 103 0 0 103 0 0 103 0 0 103 0 0 103 0 0 103 0 0 103 0 0 103 0 0 103 0 0 103 0 0 255 255 255 255 255 255 255 255 255 255 255 255 255 255 255 255 255 255 255 255 255 255 255 255 255 255 255 255 255 255 255 255 255 255 255 255 103 0 0 103 0 0 103 0 0 103 0 0 103 0 0 103 0 0 103 0 0 103 0 0 103 0 0 103 0 0 103 0 0 103 0 0 103 0 0 103 0 0 67 0 0 67 0 0 
